<?xml version="1.0" encoding="UTF-8"?>
<svg width="18px" height="18px" viewBox="0 0 18 18" version="1.1" xmlns="http://www.w3.org/2000/svg" xmlns:xlink="http://www.w3.org/1999/xlink">
    <title>全球分红</title>
    <g id="全球分红" stroke="none" stroke-width="1" fill="none" fill-rule="evenodd">
        <path d="M10.4518902,3.45655814 C11.4692223,4.99487617 12.0393949,6.63035408 12.162128,8.3650452 L14.6922981,8.3650452 C14.559485,7.18064671 14.1034589,6.14222138 13.3250599,5.24575585 C12.5459142,4.35115699 11.5882221,3.75410442 10.4515169,3.45655814 L10.4518902,3.45655814 L10.4518902,3.45655814 Z M8.99999875,3.61989127 C8.85261613,3.81289727 8.71257864,4.01140306 8.58018596,4.21498383 C8.44597279,4.4231169 8.29337299,4.68566323 8.12266654,5.00271616 C7.95454085,5.31681021 7.80425376,5.64013153 7.67252044,5.97114158 C7.54316061,6.29594117 7.42630742,6.67114069 7.32205423,7.09319349 C7.21936729,7.51092448 7.15051338,7.93625187 7.11616115,8.3650452 L10.884863,8.3650452 C10.8512463,7.93551128 10.7823519,7.50947068 10.6788766,7.09123349 C10.5744367,6.66731403 10.4573969,6.29202117 10.328317,5.96526159 C10.1985839,5.63859535 10.0496241,5.31771576 9.88087762,4.99870283 C9.7111045,4.67978324 9.55869137,4.41723691 9.42317154,4.21311717 C9.28989568,4.01014816 9.14898614,3.81229571 9.00074542,3.61998459 L8.99999875,3.61998459 L8.99999875,3.61989127 Z M14.6922048,9.6368969 L12.1619414,9.6368969 C12.0393015,11.369628 11.4691289,13.0070659 10.4517969,14.543424 C11.5885954,14.2458777 12.5468475,13.6488251 13.3249666,12.7542263 C14.1042989,11.8597207 14.5601383,10.8212954 14.6925781,9.6368969 L14.6922048,9.6368969 L14.6922048,9.6368969 Z M7.54810728,3.45655814 C6.41158873,3.75410442 5.45305662,4.35115699 4.67493761,5.24575585 C3.89560527,6.14222137 3.43976586,7.18074004 3.3075127,8.3650452 L5.84281612,8.3650452 C5.95948263,6.63427407 6.52741525,4.99870284 7.54810728,3.45665148 L7.54810728,3.45655814 Z M10.8844897,9.6368969 L7.11569449,9.6368969 C7.14972117,10.066413 7.21876835,10.4924328 7.32214757,10.9107086 C7.42640077,11.3346281 7.54334728,11.7099209 7.67214712,12.0366805 C7.80132029,12.3633467 7.95046676,12.6842263 8.12014655,13.0031459 C8.28935967,13.3221589 8.44158614,13.5827452 8.57673263,13.7888249 C8.71079025,13.9907102 8.85180814,14.1878862 8.99953208,14.3799975 C9.14787668,14.1877853 9.28875881,13.9899276 9.42186488,13.7868649 C9.55738471,13.5787319 9.71045118,13.3162789 9.87919762,12.9972659 C10.0461932,12.6837059 10.1955108,12.3610463 10.3264504,12.0308005 C10.4559969,11.7041343 10.5730367,11.3308014 10.6770099,10.9067886 C10.7806296,10.4899075 10.8495274,10.065157 10.8829963,9.6368969 L10.8844897,9.6368969 L10.8844897,9.6368969 Z M5.84281612,9.6368969 L3.3075127,9.6368969 C3.43976587,10.8212954 3.89551195,11.8597207 4.67484428,12.7542263 C5.45305662,13.6488251 6.41158872,14.2458777 7.54810728,14.543424 C7.11718783,13.8919581 6.74226831,13.1508924 6.42260204,12.3245201 C6.10312245,11.4979612 5.9096427,10.6014957 5.84281612,9.6368969 Z M9.00000383,2 C9.11918526,2 9.20887848,2.00186666 9.2685184,2.00587999 C9.88545095,2.0292133 10.4842768,2.13029317 11.0661161,2.3110796 C11.647582,2.49205271 12.1851813,2.7350924 12.679194,3.03851867 C13.1731134,3.34371828 13.6262462,3.71135781 14.0392456,4.13919726 C14.4516851,4.56899672 14.8011247,5.03566278 15.0879376,5.53938214 C15.3744706,6.04310149 15.598377,6.59143413 15.7590034,7.18270004 C15.919697,7.77538837 16.0007382,8.38683863 16.0000038,9.00092439 C16.0000038,9.61935026 15.9194432,10.2261095 15.7590968,10.8172821 C15.5984703,11.408548 15.3745639,11.9568806 15.088031,12.4606 C14.801218,12.9643193 14.4517784,13.4309854 14.039339,13.8607848 C13.6263395,14.2886243 13.1732067,14.6561705 12.6792874,14.9614634 C12.1851813,15.2668497 11.6477687,15.5079294 11.0661161,15.6888092 C10.4831618,15.8702239 9.87872643,15.9735419 9.26861174,15.9960621 C9.20887848,15.9999821 9.11927859,15.9999821 9.00009208,15.9999821 C8.88090557,15.9999821 8.79121235,15.9999821 8.73157243,15.9960621 C8.12139494,15.9735584 7.51689577,15.8702402 6.93388139,15.6888092 C6.35222879,15.5079294 5.81481616,15.2668497 5.32071013,14.9614634 C4.82679076,14.6562638 4.37384467,14.2886243 3.96084519,13.8607848 C3.54840572,13.4309854 3.1987795,12.9643193 2.91215321,12.4606 C2.62562023,11.9568806 2.40190052,11.408548 2.24090073,10.8172821 C2.08036761,10.2252315 1.99935851,9.61444606 2.00000383,9.00101771 C2.00000383,8.38063184 2.08055426,7.77387262 2.24090073,7.18270004 C2.40190052,6.59143413 2.6255269,6.04310149 2.91215321,5.53938214 C3.1987795,5.03566278 3.54840573,4.56899672 3.96084519,4.13919726 C4.37384466,3.71135781 4.82679074,3.34381162 5.32071013,3.03851867 C5.81481616,2.73518572 6.35222881,2.49205271 6.93388139,2.31117294 C7.51562732,2.13029317 8.11426655,2.0292133 8.73147909,2.00587999 C8.79130569,2.00186666 8.88090557,2 9.00018542,2 L9.00000383,2 Z" id="形状" fill="#C83635" fill-rule="nonzero"></path>
    </g>
</svg>