<?xml version="1.0" encoding="UTF-8"?>
<svg width="21px" height="24px" viewBox="0 0 21 24" version="1.1" xmlns="http://www.w3.org/2000/svg" xmlns:xlink="http://www.w3.org/1999/xlink">
    <title>订单完成</title>
    <g id="全球分红" stroke="none" stroke-width="1" fill="none" fill-rule="evenodd">
        <g id="我的/vip" transform="translate(-173.000000, -321.000000)" fill="#C83635" fill-rule="nonzero">
            <g id="订单" transform="translate(16.000000, 321.000000)">
                <g id="已完成" transform="translate(146.000000, 0.000000)">
                    <g id="订单完成" transform="translate(11.000000, 0.000000)">
                        <path d="M12.7084577,3.4488087 L7.87833494,3.4488087 C7.20152946,3.4488087 6.65302101,2.90015962 6.65302101,2.22349477 L6.65302101,1.22531393 C6.65302101,0.548672513 7.20150602,0 7.87833494,0 L12.7085749,0 C13.3853804,0 13.9338889,0.548649076 13.9338889,1.22531393 L13.9338889,2.22347134 C13.9338889,2.90027681 13.3852632,3.4488087 12.7084577,3.4488087 L12.7084577,3.4488087 Z" id="路径"></path>
                        <path d="M17.5952291,2.4987451 L14.95089,2.4987451 C14.8683431,2.4987451 14.8020852,2.56486236 14.7911867,2.64757339 C14.6810304,3.58957449 13.8822794,4.32227847 12.9126924,4.32227847 L7.67360813,4.32227847 C6.70952889,4.32227847 5.90529358,3.58957449 5.79511376,2.64757339 C5.78409812,2.5648858 5.71795742,2.4987451 5.63526983,2.4987451 L3.18370447,2.4987451 C1.53670256,2.4987451 0.192466617,3.84288728 0.192466617,5.49012358 L0.192466617,21.0087901 C0.192466617,22.6559092 1.53684318,24.0000279 3.18382166,24.0000279 L17.4079163,24.0000279 C19.0550354,24.0000279 20.3938972,22.6612998 20.3938972,21.0141807 L20.3938972,5.30281086 C20.3991542,3.76019969 19.137723,2.4987451 17.5952525,2.4987451 L17.5952291,2.4987451 Z M16.3997511,10.6629733 L10.3068846,16.7558632 L10.3124159,16.7613711 L10.3068846,16.7724101 L9.2050396,17.8742552 C8.93517992,18.1387477 8.51096067,18.1442555 8.22992128,17.8963333 L8.19129624,17.8633333 L7.07299806,16.7395507 L7.07852932,16.7340195 L4.1917994,13.8472896 C3.90536937,13.5608595 3.90536937,13.0981324 4.1917994,12.817093 L4.76480006,12.2387017 L4.7648,12.2387018 C5.05074487,11.9577796 5.50905165,11.9577796 5.79499651,12.2387017 L8.16921803,14.6130169 L8.169218,14.6130169 C8.4472738,14.8959758 8.90206729,14.8999532 9.18502856,14.621896 C9.18801406,14.6189622 9.19097384,14.6160024 9.19390759,14.613017 L14.7689922,9.03804954 L14.7689922,9.03804957 C15.0548972,8.75714143 15.5131665,8.75714143 15.7990715,9.03804952 L16.3995409,9.63851897 C16.6805569,9.9192068 16.6805569,10.3819339 16.3997753,10.6629733 L16.3997511,10.6629733 Z" id="形状"></path>
                    </g>
                </g>
            </g>
        </g>
    </g>
</svg>