<?xml version="1.0" encoding="UTF-8"?>
<svg width="28px" height="23px" viewBox="0 0 28 23" version="1.1" xmlns="http://www.w3.org/2000/svg" xmlns:xlink="http://www.w3.org/1999/xlink">
    <title>待付款</title>
    <g id="全球分红" stroke="none" stroke-width="1" fill="none" fill-rule="evenodd">
        <g id="我的/vip" transform="translate(-96.000000, -323.000000)" fill="#C83635" fill-rule="nonzero">
            <g id="订单" transform="translate(16.000000, 321.000000)">
                <g id="待发货" transform="translate(73.000000, 2.000000)">
                    <g id="待付款" transform="translate(7.000000, 0.000000)">
                        <path d="M18.1020211,19.7705714 C18.1020211,21.3805733 19.4040226,22.6825748 21.0140245,22.6825748 C22.6240263,22.6825748 23.9260278,21.3805733 23.9260278,19.7705714 C23.9260278,18.1605695 22.6240263,16.858568 21.0140245,16.858568 C19.4040226,16.858568 18.1020211,18.1605695 18.1020211,19.7705714 Z M4.14400482,19.7425714 C4.14400482,21.3525733 5.44600634,22.6405748 7.04200819,22.6405748 C8.63801005,22.6405748 9.94001157,21.3385732 9.94001157,19.7425714 C9.94001157,18.1325695 8.63801005,16.844568 7.04200819,16.844568 C5.44600634,16.844568 4.14400482,18.1325695 4.14400482,19.7425714 Z" id="形状"></path>
                        <path d="M23.4360273,4.83255404 L18.6760217,4.83255404 L18.6760217,2.01855077 C18.6760217,1.06654966 18.1160211,0.352548827 17.20602,0.170548615 L2.52000293,0.170548615 C1.48400173,0.170548615 0.560000652,0.730549267 0,1.65455034 L0,18.6365701 L2.53400295,18.6365701 C3.02400352,16.5785677 4.85800565,15.094566 7.04200819,15.094566 C9.22601074,15.094566 11.0600129,16.5925677 11.5500134,18.6365701 L16.4780192,18.6365701 C16.9680197,16.5785677 18.8020219,15.094566 20.9860244,15.094566 C23.170027,15.094566 25.0040291,16.5925677 25.4940297,18.6365701 L28.0000326,18.6365701 L28.0000326,13.1065637 L23.4360273,4.83255404 L23.4360273,4.83255404 Z M18.8580219,12.8545634 L18.8580219,7.07255665 L22.1900258,7.07255665 L25.5360297,12.8545634 L18.8580219,12.8545634 Z" id="形状"></path>
                    </g>
                </g>
            </g>
        </g>
    </g>
</svg>