<?xml version="1.0" encoding="UTF-8"?>
<svg width="28px" height="23px" viewBox="0 0 28 23" version="1.1" xmlns="http://www.w3.org/2000/svg" xmlns:xlink="http://www.w3.org/1999/xlink">
    <title>形状</title>
    <g id="全球分红" stroke="none" stroke-width="1" fill="none" fill-rule="evenodd">
        <g id="我的/vip" transform="translate(-23.000000, -322.000000)" fill="#C83635" fill-rule="nonzero">
            <g id="订单" transform="translate(16.000000, 321.000000)">
                <g id="待付款" transform="translate(0.000000, 1.000000)">
                    <path d="M29.144405,-1.50877296e-05 L29.1444049,-1.50877296e-05 C30.4317756,-1.50877296e-05 31.4753847,1.04361996 31.4753847,2.33097976 L31.4753847,5.82746022 L27.3961431,5.82746022 L27.3961429,5.82746022 C24.5597128,5.82749111 22.2372534,8.08255647 22.1537362,10.9177539 L22.1514052,11.072182 L22.1514052,11.0721258 C22.1514056,13.9085559 24.4064582,16.2310369 27.2416557,16.3145758 L27.3961399,16.3169085 L31.4753847,16.3169085 L31.4753847,19.8133889 L31.4753847,19.8133889 C31.4753847,21.1007595 30.4317616,22.1443687 29.1444018,22.1443687 L9.33097649,22.1443687 L9.33097639,22.1443687 C8.04360578,22.1443687 6.99999663,21.1007487 6.99999663,19.8133889 C6.99999663,19.8133889 6.99999663,19.8133889 6.99999663,19.8133889 L6.99999663,2.33096503 L6.99999663,2.33096467 C6.99999663,1.04359406 8.04361659,-1.50877296e-05 9.33097639,-1.50877296e-05 L29.1444017,-1.50877296e-05 L29.144405,-1.50877296e-05 Z M33.2236467,7.57572207 L33.2236466,7.57572207 C33.8673308,7.57572207 34.3891408,8.09753205 34.3891408,8.74121628 C34.3891408,8.74121628 34.3891408,8.74121628 34.3891408,8.74121628 L34.3891408,13.4031974 L34.3891408,13.4031974 C34.3891408,14.0468816 33.8673308,14.5686916 33.2236466,14.5686916 C33.2236466,14.5686916 33.2236466,14.5686916 33.2236466,14.5686916 L27.3961648,14.5686916 L27.3961646,14.5686916 C25.4651098,14.5686916 23.8996842,13.0032617 23.8996842,11.0722112 C23.8996842,9.14115634 25.4651141,7.57572207 27.3961646,7.57572207 L33.2236465,7.57572207 L33.2236467,7.57572207 Z" id="形状"></path>
                </g>
            </g>
        </g>
    </g>
</svg>