<?xml version="1.0" encoding="UTF-8"?>
<svg width="18px" height="18px" viewBox="0 0 18 18" version="1.1" xmlns="http://www.w3.org/2000/svg" xmlns:xlink="http://www.w3.org/1999/xlink">
    <title>my/邀请</title>
    <g id="my/邀请" stroke="none" stroke-width="1" fill="none" fill-rule="evenodd">
        <g id="邀请好友">
            <rect id="矩形备份" fill-opacity="0" fill="#00B55C" x="0" y="0" width="18" height="18"></rect>
            <path d="M13.9383785,14.6147557 C13.9383785,14.6147557 13.5174443,15.9968745 13.0002858,15.9968745 L7.5074943,15.9968745 C7.12469913,15.9968745 6.14846596,15.7340966 6.14846596,15.0038468 L6.14846596,7.60651981 C6.14846596,7.60651981 8.86617811,5.56238071 8.86617811,2.95383861 C8.94280714,2.81772591 8.73251473,2 9.74653714,2 C9.74653714,2 12.1391864,2.27257512 10.7227703,7.60651434 L14.3785656,7.60651434 C14.3785656,7.60651434 15.2970637,7.52883557 15.2970637,8.50191928 C15.2970637,8.50191928 15.2970637,9.9036299 13.9383854,14.6147448 L13.9383785,14.6147557 Z M4.81358081,15.9968745 L2.91884814,15.9968745 C2.91884814,15.9968745 2.45242611,15.9968745 2.45242611,15.5220552 L2,8.06174182 C2,8.06174182 2.00699808,7.60896111 2.45907475,7.60896111 L4.648423,7.60896111 C4.648423,7.60896111 5.20477159,7.60161772 5.20477159,8.17441051 L5.20477159,15.6826575 C5.20477159,15.6826575 5.20826957,15.9968745 4.81357808,15.9968745 L4.81358081,15.9968745 Z" id="形状" fill="#C83635" fill-rule="nonzero"></path>
        </g>
    </g>
</svg>