<?xml version="1.0" encoding="UTF-8"?>
<svg width="19px" height="24px" viewBox="0 0 19 24" version="1.1" xmlns="http://www.w3.org/2000/svg" xmlns:xlink="http://www.w3.org/1999/xlink">
    <title>形状</title>
    <g id="全球分红" stroke="none" stroke-width="1" fill="none" fill-rule="evenodd">
        <g id="我的/vip" transform="translate(-323.000000, -321.000000)" fill="#C83635" fill-rule="nonzero">
            <g id="订单" transform="translate(16.000000, 321.000000)">
                <g id="全部订单" transform="translate(288.000000, 0.000000)">
                    <g id="订单" transform="translate(19.000000, 0.000000)">
                        <path d="M17.3005866,3.00120947 L13.1978647,3.00120947 L13.1978647,3.00120947 C12.7490402,3.00616348 12.3576572,2.69361596 12.2582851,2.25088606 L12.2582851,2.25088599 C11.8523274,0.649343901 10.2396396,-0.316096212 8.65624725,0.0945112563 C7.60976713,0.36588558 6.79260577,1.19241363 6.52430373,2.25088599 L6.52430373,2.25088598 C6.42493228,2.69361589 6.0335509,3.00616392 5.5847241,3.00120939 L1.48200227,3.00120939 L1.4820023,3.00120939 C0.677888656,2.98681078 0.0144846448,3.63447083 0.000250555884,4.44779929 C0,4.46517855 0,4.48256188 0.000250553884,4.49994118 L0.000250553884,22.5000578 L0.000250499753,22.5000608 C-0.014515508,23.3133799 0.625368681,23.9848128 1.42947306,23.9997467 C1.44729767,24 1.46512687,24 1.48295134,23.9997466 L17.2996587,23.9997466 L17.2996587,23.9997466 C18.1037631,24.0146835 18.7675888,23.3674671 18.7823581,22.554148 C18.7826087,22.5361192 18.7826087,22.5180857 18.7823581,22.5000569 L18.7823581,4.4999403 L18.7823582,4.49993724 C18.7971242,3.68661816 18.15724,3.01518525 17.3531356,3.00025134 C17.335311,2.99992028 17.3174818,2.99992031 17.2996574,3.00025146 L17.3005866,3.00120947 Z M8.40628527,3.00120947 L10.3838481,3.00120947 L10.3838481,3.00120947 C10.6415586,2.98596432 10.8626933,3.18491552 10.8777662,3.44557994 C10.8788294,3.46396676 10.8788294,3.48240074 10.8777662,3.50078759 L10.8777662,3.50078787 C10.8928384,3.76145159 10.6961412,3.98512038 10.4384303,4.000366 C10.4202518,4.00144135 10.4020267,4.00144134 10.3838482,4.00036596 L8.4062853,4.00036596 L8.4062853,4.00036596 C8.14857484,4.01561111 7.92744017,3.81665991 7.91236728,3.55599549 C7.91130409,3.53760866 7.91130409,3.51917468 7.91236728,3.50078784 L7.91236727,3.50078773 C7.89738206,3.24011932 8.09415417,3.0165185 8.35186997,3.0013596 C8.36904627,3.00034942 8.38626465,3.00029923 8.40344635,3.00120927 L8.40628527,3.00120947 Z M11.3716934,18.5005528 L3.46332815,18.5005528 L3.46332813,18.5005528 C3.19028294,18.5005528 2.96893742,18.27667 2.96893742,18.0004965 C2.96893742,17.7243223 3.19028364,17.5004403 3.46332813,17.5004403 L11.3716934,17.5004403 L11.3716934,17.5004403 C11.6447386,17.5004403 11.8660841,17.7243231 11.8660841,18.0004965 C11.8660841,18.2766707 11.6447379,18.5005528 11.3716934,18.5005528 L11.3716934,18.5005528 Z M13.3492563,14.0024513 L3.46049199,14.0024513 L3.46049197,14.0024513 C3.18744679,14.0024513 2.96610126,13.7785685 2.96610126,13.502395 C2.96610126,13.2262209 3.18744748,13.0023388 3.46049197,13.0023388 L13.3464062,13.0023388 L13.3464062,13.0023388 C13.6194514,13.0023388 13.8407969,13.2262216 13.8407969,13.502395 C13.8407969,13.7785692 13.6194507,14.0024513 13.3464062,14.0024513 L13.3492563,14.0024513 Z M15.3268191,9.50434979 L3.46050589,9.50434979 L3.46050587,9.50434979 C3.18746069,9.50434979 2.96611516,9.28046703 2.96611516,9.00429356 C2.96611516,8.72811939 3.18746138,8.50423733 3.46050587,8.50423733 L15.3230422,8.50423733 L15.3230422,8.50423733 C15.5960874,8.50423733 15.8174329,8.72812009 15.8174329,9.00429356 C15.8174329,9.28046773 15.5960867,9.50434979 15.3230422,9.50434979 L15.3268191,9.50434979 Z" id="形状"></path>
                    </g>
                </g>
            </g>
        </g>
    </g>
</svg>