<?xml version="1.0" encoding="UTF-8"?>
<svg width="18px" height="18px" viewBox="0 0 18 18" version="1.1" xmlns="http://www.w3.org/2000/svg" xmlns:xlink="http://www.w3.org/1999/xlink">
    <title>my/设置</title>
    <g id="my/设置" stroke="none" stroke-width="1" fill="none" fill-rule="evenodd">
        <g id="设置" transform="translate(0.000000, 0.000000)">
            <rect id="矩形备份-4" fill-opacity="0" fill="#D8D8D8" x="0" y="0" width="18" height="18"></rect>
            <g id="设-置" transform="translate(2.000000, 2.000000)" fill="#C83635" fill-rule="nonzero">
                <path d="M12.481948,6.84445289 C12.481948,6.04389688 12.984587,5.36556705 13.6888943,5.09515007 C13.520839,4.4351493 13.2611156,3.8133435 12.9219485,3.24194869 C12.2313926,3.54903238 11.3972293,3.42375398 10.8319461,2.85694825 C10.2666672,2.29166933 10.1413902,1.45597487 10.4484739,0.766945814 C9.87555654,0.427778753 9.25375074,0.168056706 8.59375427,0 C8.32180903,0.704305898 7.64347491,1.20694633 6.84445145,1.20694633 C6.04389544,1.20694633 5.36556562,0.70430733 5.09514864,0 C4.43514787,0.168055274 3.81334207,0.427778753 3.24194726,0.766945814 C3.54903095,1.4575017 3.42375255,2.29166504 2.85847507,2.85694825 C2.29319616,3.42222716 1.4575017,3.54750413 0.768472639,3.24194869 C0.427777321,3.81333777 0.168055274,4.435145 0,5.09515007 C0.704305898,5.36709531 1.20694633,6.04542943 1.20694633,6.84445289 C1.20694633,7.6450089 0.70430733,8.32333872 0,8.5937557 C0.168055274,9.25375647 0.427778753,9.87556227 0.766945814,10.4469571 C1.4575017,10.1398734 2.29166504,10.2651518 2.85694825,10.8319575 C3.42222716,11.3972364 3.54750413,12.2329309 3.24042044,12.92196 C3.81333777,13.261127 4.43514357,13.5208491 5.09514004,13.6889058 C5.36708528,12.9845999 6.0454194,12.4819594 6.84444286,12.4819594 C7.64499887,12.4819594 8.3233287,12.9845984 8.59374568,13.6889058 C9.25374645,13.5208505 9.87555225,13.261127 10.4469471,12.92196 C10.1398634,12.2314041 10.2651418,11.3972407 10.8304192,10.8319575 C11.3956982,10.2666786 12.2313926,10.1414016 12.9204217,10.4469571 C13.261117,9.875568 13.520839,9.25376077 13.6888943,8.5937557 C12.9845884,8.32333872 12.481948,7.6450046 12.481948,6.84445289 Z M6.84444143,8.72362174 C5.80707863,8.72362174 4.96527257,7.88181568 4.96527257,6.84445289 C4.96527257,5.80709009 5.80707863,4.96528403 6.84444143,4.96528403 C7.88180422,4.96528403 8.72361028,5.80709009 8.72361028,6.84445289 C8.72361028,7.88181568 7.88180422,8.72362174 6.84444143,8.72362174 Z" id="形状"></path>
            </g>
        </g>
    </g>
</svg>