<?xml version="1.0" encoding="UTF-8"?>
<svg width="25px" height="24px" viewBox="0 0 25 24" version="1.1" xmlns="http://www.w3.org/2000/svg" xmlns:xlink="http://www.w3.org/1999/xlink">
    <title>形状</title>
    <g id="全球分红" stroke="none" stroke-width="1" fill="none" fill-rule="evenodd">
        <g id="我的/vip" transform="translate(-245.000000, -322.000000)" fill="#C83635" fill-rule="nonzero">
            <g id="订单" transform="translate(16.000000, 321.000000)">
                <g id="售后" transform="translate(220.000000, 1.000000)">
                    <g id="工作台-售后订单" transform="translate(9.000000, 0.000000)">
                        <path d="M25.0039622,13.9455749 L18.7596378,23.4606792 L19.1461889,17.216392 L15.7861909,17.216392 C15.6077734,17.216392 15.4888276,17.0974469 15.4888276,16.9190287 L18.4622977,9.48535341 C18.4622977,9.30697424 18.5812428,9.18802963 18.759661,9.18802963 L22.6251722,9.18802963 C22.8035706,9.18802963 22.9225354,9.30695543 22.9225354,9.485372 L20.9600196,13.9455772 L25.0039622,13.9455772 L25.0039622,13.9455749 Z M17.2729027,8.02836932 L12.8127208,18.4355147 C12.8127208,18.7625941 13.0803284,19.0302018 13.4074078,19.0302018 L16.975572,19.0302018 L16.975572,23.787754 L3.00026242,23.787754 C1.69194486,23.787754 0.621486323,22.7172861 0.621486323,21.4089779 L0.621486323,2.37876913 C0.621486323,1.07045157 1.69193324,-6.96907057e-06 3.00026242,-6.96907057e-06 L19.0570243,-6.96907057e-06 C20.3653418,-6.96907057e-06 21.4358004,1.07043995 21.4358004,2.37876913 L21.4358004,7.43366833 L17.8676362,7.43366833 C17.5405568,7.43366833 17.2729306,7.67155755 17.2729306,8.02837396 L17.2729027,8.02836932 Z M4.48698121,10.6747345 C4.48698121,10.8531329 4.60592629,10.9720769 4.78434449,10.9720769 L8.64985564,10.9720769 C8.82825409,10.9720769 8.94719801,10.8531318 8.94719801,10.6747136 L8.94719801,10.0800265 C8.94719801,9.90162808 8.82825293,9.78268416 8.64983473,9.78268416 L4.78434681,9.78268416 C4.60594836,9.78268416 4.48698121,9.90162924 4.48698121,10.0800474 L4.48698121,10.6747345 L4.48698121,10.6747345 Z M4.48697889,8.02834609 C4.48697889,8.20674454 4.60592629,8.32568845 4.78434449,8.32568845 L11.0286085,8.32568845 C11.207026,8.32568845 11.3259718,8.20674338 11.3259718,8.02832518 L11.3259718,7.43363813 C11.3259718,7.25523968 11.2070267,7.13629576 11.0286085,7.13629576 L4.78432126,7.13629576 C4.60592281,7.13629576 4.48697889,7.25524084 4.48697889,7.43365903 L4.48697889,8.02834609 L4.48697889,8.02834609 Z M13.4074148,4.75755219 C13.4074148,4.57913469 13.2884697,4.46018892 13.1100515,4.46018892 L4.7843352,4.46018892 C4.60593674,4.46018892 4.48699283,4.57913399 4.48699283,4.75755219 L4.48699283,5.35223924 C4.48699283,5.53065674 4.60593791,5.64960252 4.7843561,5.64960252 L13.1100492,5.64960252 C13.2884477,5.64960252 13.4074148,5.53065744 13.4074148,5.35223924 L13.4074148,4.75755219 L13.4074148,4.75755219 Z" id="形状"></path>
                    </g>
                </g>
            </g>
        </g>
    </g>
</svg>